<?xml version="1.0" standalone="no"?>
<!DOCTYPE svg PUBLIC "-//W3C//DTD SVG 20010904//EN"
 "http://www.w3.org/TR/2001/REC-SVG-20010904/DTD/svg10.dtd">
<svg version="1.0" xmlns="http://www.w3.org/2000/svg"
 width="460.000000pt" height="460.000000pt" viewBox="0 0 460.000000 460.000000"
 preserveAspectRatio="xMidYMid meet">
<metadata>
Created by potrace 1.14, written by Peter Selinger 2001-2017
</metadata>
<g transform="translate(0.000000,460.000000) scale(0.100000,-0.100000)"
fill="#000000" stroke="none">
<path d="M0 2300 l0 -2300 1017 0 c855 0 1014 2 998 13 -10 8 -15 19 -11 25 3
5 1 12 -5 14 -7 2 -12 18 -13 36 0 18 -4 32 -8 32 -5 0 -8 17 -8 38 0 28 -7
45 -26 63 -23 22 -24 24 -8 36 16 12 15 14 -9 36 -15 12 -27 28 -27 34 0 7
-10 21 -21 32 l-21 20 33 9 34 10 -32 1 c-24 1 -31 5 -27 16 4 9 0 15 -10 15
-19 0 -21 16 -3 23 10 4 10 7 0 18 -11 11 -13 11 -13 -1 0 -13 -2 -13 -9 -1
-6 9 -5 24 0 39 6 16 6 29 -2 38 -6 8 -8 14 -4 14 4 0 2 7 -5 15 -10 12 -10
15 3 15 9 0 18 -12 22 -29 3 -17 14 -31 26 -34 13 -3 19 -14 19 -31 0 -14 5
-26 11 -26 6 0 8 -9 4 -21 -5 -15 -3 -20 6 -17 8 3 19 -5 25 -16 6 -12 16 -30
22 -41 6 -11 14 -38 17 -59 5 -29 9 -36 16 -25 7 11 9 9 9 -9 0 -12 7 -25 15
-28 8 -4 15 -14 15 -23 0 -9 7 -29 16 -46 8 -16 13 -37 11 -47 -3 -11 0 -18 9
-18 8 0 14 -7 14 -15 0 -8 3 -15 8 -15 4 0 15 -20 25 -45 13 -31 25 -45 38
-45 22 0 72 47 58 55 -5 4 -9 1 -9 -4 0 -6 -9 -11 -21 -11 -15 0 -19 5 -15 15
3 8 1 15 -4 15 -5 0 -15 14 -24 30 -14 30 -14 31 10 40 32 13 30 17 -5 12 -32
-4 -49 12 -32 31 7 9 5 16 -10 25 -10 7 -19 18 -19 24 0 9 3 9 12 0 16 -16 28
-15 28 2 0 8 -14 19 -31 25 -17 6 -28 15 -24 21 3 5 1 10 -4 10 -6 0 -11 8
-11 18 0 9 -9 31 -20 47 -11 17 -20 46 -21 65 0 19 -3 30 -5 23 -3 -7 -12 -9
-19 -6 -11 4 -12 10 -4 24 5 11 7 25 3 31 -4 6 1 17 11 25 15 10 16 16 7 25
-9 9 -12 8 -12 -5 0 -9 -4 -17 -10 -17 -5 0 -10 9 -10 20 0 16 -7 20 -31 20
-17 0 -28 4 -24 10 3 5 22 10 42 10 30 0 34 2 23 15 -7 8 -24 16 -39 16 -25 1
-25 2 4 9 l30 8 -27 1 c-29 1 -38 15 -15 24 7 4 6 6 -5 6 -20 1 -28 22 -14 36
6 6 22 11 36 11 14 0 35 3 48 8 18 6 22 4 22 -13 0 -18 6 -21 40 -21 41 0 57
-21 25 -34 -8 -3 -15 -1 -15 4 0 6 -4 10 -10 10 -17 0 -12 -57 6 -64 12 -4 14
-1 9 14 -5 16 -2 20 14 20 13 0 22 -7 22 -17 1 -10 2 -25 3 -33 1 -8 5 -21 10
-28 4 -7 5 -16 2 -19 -9 -9 14 -43 29 -43 21 0 19 30 -2 46 -11 8 -13 13 -5
14 18 0 15 20 -4 20 -8 0 -12 5 -9 10 17 27 55 -16 55 -61 0 -10 4 -20 9 -24
6 -3 9 -15 8 -26 -1 -18 -3 -18 -13 -5 -18 25 -37 21 -23 -5 6 -13 9 -39 5
-63 -4 -24 -3 -36 2 -28 6 9 16 -5 30 -46 26 -71 26 -73 6 -65 -12 4 -15 1
-12 -13 2 -10 10 -19 18 -19 17 0 50 -37 50 -56 0 -7 7 -20 16 -30 9 -10 13
-23 9 -29 -5 -8 -11 -5 -21 7 -13 16 -14 15 -7 -12 3 -16 12 -36 20 -43 19
-20 16 -32 -9 -32 -19 -1 -17 -3 11 -15 18 -8 51 -15 73 -15 35 0 39 2 28 15
-7 8 -9 15 -4 15 5 0 1 5 -8 11 -28 16 -21 34 12 35 20 1 31 -5 35 -16 5 -16
44 -35 52 -26 2 2 -6 14 -17 29 -11 14 -20 39 -20 56 0 21 -5 31 -15 31 -9 0
-15 9 -15 25 0 14 -4 25 -10 25 -5 0 -10 9 -10 20 0 10 -7 23 -16 28 -12 7
-13 11 -5 17 9 5 8 10 -4 19 -12 9 -14 18 -7 36 6 18 3 35 -9 60 -18 35 -18
35 -19 8 0 -24 -4 -28 -30 -28 -24 0 -30 4 -30 22 0 21 1 21 13 3 8 -10 18
-15 24 -12 14 9 -8 97 -24 97 -19 0 -16 31 5 47 16 13 16 13 -3 11 -12 -2 -19
2 -17 10 1 7 -5 15 -13 18 -9 4 -15 19 -15 36 0 16 -5 39 -12 51 -7 12 -11 34
-9 49 1 17 -6 36 -19 50 -14 15 -19 30 -15 46 4 15 0 24 -10 28 -16 6 -21 34
-6 34 16 0 -1 50 -18 51 -10 0 -11 3 -4 6 9 3 6 13 -9 33 -11 16 -18 36 -15
44 4 9 2 16 -3 16 -6 0 -10 7 -10 15 0 8 -6 15 -14 15 -13 0 -25 17 -22 31 0
3 -5 13 -13 22 -12 15 -10 18 10 26 13 5 20 11 14 12 -5 1 -14 2 -20 4 -5 1
-18 3 -27 3 -19 2 -25 38 -8 44 6 2 8 17 4 36 -5 25 -11 31 -24 27 -14 -4 -16
0 -12 25 4 26 6 27 19 15 17 -18 72 -100 92 -138 8 -15 20 -26 26 -23 15 5 37
-13 53 -44 28 -56 41 -73 64 -89 14 -9 23 -22 20 -31 -3 -12 -2 -12 8 -3 10 9
7 18 -14 43 -23 27 -76 130 -76 146 0 3 -16 24 -35 47 -19 22 -35 45 -35 49 0
5 -12 20 -27 33 -16 13 -25 26 -21 30 7 7 78 -63 78 -77 0 -4 11 -18 25 -32
15 -15 25 -20 25 -12 0 7 -12 25 -26 40 -15 14 -24 26 -20 26 8 0 -21 36 -72
87 -34 33 -43 49 -40 70 2 23 -1 27 -15 25 -15 -3 -17 1 -12 17 5 17 3 20 -10
14 -15 -5 -34 10 -35 28 0 12 29 18 35 8 4 -5 3 -8 -2 -7 -4 2 -8 -2 -9 -7 0
-6 7 -9 16 -7 16 3 247 -222 310 -302 45 -58 78 -86 84 -73 3 7 3 2 0 -10 -7
-28 96 -139 138 -148 32 -7 60 9 52 29 -3 8 2 16 11 20 13 5 15 16 9 68 -3 35
-1 99 4 143 6 44 7 84 2 90 -4 5 -3 26 4 47 15 42 13 150 -3 191 -6 16 -9 33
-6 37 11 17 -20 50 -46 50 -23 0 -44 14 -76 54 -19 23 -29 72 -32 162 -1 24
-9 37 -36 55 -27 19 -33 29 -29 46 5 20 2 23 -21 23 -41 0 -115 97 -115 152 0
10 -4 18 -9 18 -5 0 -11 18 -13 39 -3 39 12 61 44 61 7 0 19 9 26 20 13 21 3
51 -25 75 -6 5 -14 24 -18 41 -9 47 14 61 120 69 23 2 45 5 50 6 6 2 21 -3 34
-10 13 -7 27 -9 32 -4 11 11 0 55 -12 47 -5 -3 -9 -1 -9 4 0 5 -27 12 -61 15
-33 3 -68 12 -77 20 -9 8 -36 24 -58 35 -40 20 -62 56 -43 68 8 5 6 26 -8 77
-3 11 -11 16 -19 13 -9 -3 -14 1 -14 13 0 10 -9 21 -19 24 -15 3 -21 17 -26
53 -3 27 -10 56 -15 65 -5 10 -3 48 6 99 7 45 11 86 8 91 -2 5 0 17 5 28 13
23 14 56 8 139 -5 54 -3 63 14 72 10 6 19 17 19 25 0 8 3 15 8 15 16 0 28 -17
40 -55 32 -96 55 -126 68 -90 4 8 14 15 23 15 14 -1 14 -2 -1 -14 -10 -7 -14
-17 -10 -21 4 -5 1 -5 -5 -1 -19 11 -15 -5 5 -20 9 -7 36 -14 58 -14 23 0 47
-6 53 -14 13 -15 81 -20 81 -5 0 5 -7 9 -15 9 -8 0 -15 9 -15 20 0 23 10 26
28 8 6 -6 15 -8 19 -3 5 4 2 10 -6 13 -9 3 -5 11 14 26 15 12 33 39 40 59 12
36 12 37 -11 43 -14 4 -24 14 -24 24 0 10 -9 20 -20 23 -27 7 -25 23 5 51 14
13 25 25 25 28 0 7 -48 3 -56 -4 -11 -11 -24 -10 -24 2 0 6 7 10 15 10 8 0 15
4 15 9 0 6 -44 10 -102 9 -96 0 -103 1 -136 27 -30 24 -36 26 -44 12 -5 -10
-15 -14 -25 -10 -14 6 -14 8 3 20 10 7 25 13 33 13 9 1 34 21 55 46 34 40 38
49 27 66 -6 10 -9 23 -6 27 3 5 -2 12 -11 15 -22 8 -26 8 -19 -3 10 -18 -17
-23 -33 -7 -15 15 -15 16 2 16 12 0 16 5 13 15 -8 19 13 31 24 14 4 -7 11 -10
15 -6 10 9 -26 36 -48 37 -10 0 -18 4 -18 10 0 5 7 7 15 4 9 -4 15 0 15 10 0
9 5 16 10 16 6 0 10 -7 10 -15 0 -8 8 -15 18 -15 12 0 14 2 4 8 -7 5 -10 16
-6 25 4 11 0 19 -10 23 -23 9 -20 27 4 21 14 -4 20 0 21 11 0 11 2 12 6 5 9
-23 22 -13 19 14 -2 18 -13 32 -33 43 -30 16 -34 40 -7 40 9 0 14 -7 12 -17
-2 -10 5 -19 16 -21 12 -3 16 0 11 8 -4 7 1 13 14 17 11 3 18 9 15 14 -3 5
-10 7 -15 4 -15 -10 -21 19 -9 49 6 17 15 25 22 21 7 -4 4 1 -6 9 -11 9 -27
16 -35 16 -15 0 -61 41 -61 54 0 3 14 6 30 6 17 0 30 5 30 10 0 6 6 10 13 10
8 0 22 9 33 21 10 11 26 18 35 16 27 -7 59 21 59 50 0 14 6 31 14 37 24 19 23
69 -3 102 -12 16 -28 29 -34 29 -15 0 -10 97 6 107 16 10 21 81 5 76 -7 -3
-15 -18 -18 -34 -4 -19 -11 -29 -23 -28 -12 1 -17 -6 -18 -25 -1 -46 -11 -60
-37 -50 l-23 9 22 38 23 39 -21 29 c-12 16 -23 40 -25 54 -2 14 -9 24 -16 22
-6 -1 -12 2 -12 8 0 6 -405 10 -1155 10 l-1155 0 0 -2300z m2347 2189 c2 -26
0 -29 -12 -19 -18 15 -20 50 -2 50 6 0 13 -14 14 -31z m74 -169 c5 0 9 -6 9
-14 0 -8 6 -17 13 -19 8 -4 7 -6 -3 -6 -25 -1 -40 20 -39 54 1 23 3 25 6 8 2
-13 9 -23 14 -23z m-131 -390 c0 -5 -4 -10 -10 -10 -5 0 -10 5 -10 10 0 6 5
10 10 10 6 0 10 -4 10 -10z m-50 -170 c0 -5 -5 -10 -11 -10 -5 0 -7 5 -4 10 3
6 8 10 11 10 2 0 4 -4 4 -10z m-135 -269 c3 -5 -2 -17 -11 -26 -22 -21 -43 -4
-23 19 16 18 26 20 34 7z m378 -291 c8 -22 11 -40 6 -40 -5 0 -9 4 -9 9 0 5
-9 13 -20 16 -19 6 -27 35 -13 48 13 13 20 6 36 -33z m-573 -20 c0 -5 -5 -10
-11 -10 -5 0 -7 5 -4 10 3 6 8 10 11 10 2 0 4 -4 4 -10z m476 -21 c9 -16 -12
-33 -31 -25 -14 5 -15 9 -5 21 15 18 26 19 36 4z m91 -51 c-3 -8 -6 -5 -6 6
-1 11 2 17 5 13 3 -3 4 -12 1 -19z m-867 -509 c0 -5 -4 -9 -10 -9 -5 0 -10 7
-10 16 0 8 5 12 10 9 6 -3 10 -10 10 -16z m27 -161 c-3 -7 -5 -2 -5 12 0 14 2
19 5 13 2 -7 2 -19 0 -25z m860 -4 c-3 -3 -12 -4 -19 -1 -8 3 -5 6 6 6 11 1
17 -2 13 -5z m-817 -93 c0 -27 -18 3 -24 39 l-6 35 15 -30 c8 -16 14 -37 15
-44z m-13 -913 c-3 -7 -5 -2 -5 12 0 14 2 19 5 13 2 -7 2 -19 0 -25z m787
-183 c-5 -12 -10 -13 -20 -4 -19 15 -18 19 6 19 13 0 18 -5 14 -15z m-744 -45
c0 -22 -2 -40 -4 -40 -2 0 -6 18 -8 40 -2 22 0 40 4 40 5 0 8 -18 8 -40z m700
24 c0 -13 7 -15 30 -10 24 4 30 2 31 -12 1 -14 2 -14 6 2 4 15 7 16 14 5 5 -9
2 -21 -9 -33 -9 -11 -11 -16 -4 -12 7 4 12 2 12 -6 0 -19 -96 -22 -104 -3 -4
11 1 13 24 8 33 -6 43 11 11 20 -18 4 -36 57 -20 57 5 0 9 -7 9 -16z m-247
-88 c4 -10 1 -13 -8 -9 -8 3 -12 9 -9 14 7 12 11 11 17 -5z m302 -16 c3 -5 -1
-10 -9 -10 -9 0 -16 5 -16 10 0 6 4 10 9 10 6 0 13 -4 16 -10z m-725 -10 c0
-5 -2 -10 -4 -10 -3 0 -8 5 -11 10 -3 6 -1 10 4 10 6 0 11 -4 11 -10z m370
-125 c0 -8 -2 -15 -4 -15 -2 0 -6 7 -10 15 -3 8 -1 15 4 15 6 0 10 -7 10 -15z
m435 -15 c3 -5 1 -10 -4 -10 -6 0 -11 5 -11 10 0 6 2 10 4 10 3 0 8 -4 11 -10z
m-700 -29 c-3 -6 -11 -8 -17 -5 -6 4 -5 9 3 15 16 10 23 4 14 -10z m275 -21
c0 -5 -4 -10 -10 -10 -5 0 -10 5 -10 10 0 6 5 10 10 10 6 0 10 -4 10 -10z
m-122 -40 c-2 -7 -10 1 -17 16 -12 27 -11 28 4 12 10 -9 16 -21 13 -28z m-99
-77 c1 -7 -8 -9 -21 -5 -18 4 -20 2 -15 -17 4 -18 3 -20 -8 -11 -9 8 -12 22
-8 41 3 19 1 29 -6 29 -7 0 -9 5 -6 10 7 12 64 -29 64 -47z m151 6 c0 -10 -4
-19 -10 -19 -5 0 -10 12 -10 26 0 14 4 23 10 19 6 -3 10 -15 10 -26z m-56 -65
c8 -21 8 -24 -3 -24 -5 0 -11 9 -14 20 -6 24 8 27 17 4z m86 -3 c0 -11 2 -26
5 -33 4 -9 -2 -14 -14 -14 -16 0 -18 3 -8 14 9 11 7 17 -6 27 -23 16 -22 25 3
25 13 0 20 -7 20 -19z m-350 -21 c0 -11 -2 -20 -4 -20 -2 0 -6 9 -9 20 -3 11
-1 20 4 20 5 0 9 -9 9 -20z m190 10 c0 -5 -2 -10 -4 -10 -3 0 -8 5 -11 10 -3
6 -1 10 4 10 6 0 11 -4 11 -10z m30 0 c0 -5 -4 -10 -10 -10 -5 0 -10 5 -10 10
0 6 5 10 10 10 6 0 10 -4 10 -10z m-180 -54 c0 -3 -4 -8 -10 -11 -5 -3 -10 -1
-10 4 0 6 5 11 10 11 6 0 10 -2 10 -4z m44 -55 c-7 -8 -33 33 -27 43 3 5 12
-2 19 -15 7 -13 10 -26 8 -28z m326 29 c0 -5 -2 -10 -4 -10 -3 0 -8 5 -11 10
-3 6 -1 10 4 10 6 0 11 -4 11 -10z m-240 -21 c0 -5 -7 -9 -15 -9 -15 0 -20 12
-9 23 8 8 24 -1 24 -14z m-133 -11 c-3 -8 -6 -5 -6 6 -1 11 2 17 5 13 3 -3 4
-12 1 -19z m-24 -53 c-3 -8 -1 -15 5 -15 5 0 13 -7 16 -16 3 -8 2 -13 -3 -9
-5 3 -12 -1 -14 -7 -10 -23 -28 15 -24 50 1 17 0 32 -5 32 -4 0 -5 7 -1 15 4
12 8 10 19 -10 7 -14 11 -32 7 -40z m210 -34 c-2 -6 2 -11 7 -11 6 0 10 -9 10
-20 0 -11 -5 -20 -10 -20 -6 0 -10 8 -8 18 2 11 -3 17 -13 16 -11 -1 -15 4
-11 18 5 20 29 19 25 -1z m-196 -78 c-3 -10 -5 -4 -5 12 0 17 2 24 5 18 2 -7
2 -21 0 -30z m463 -22 c0 -6 -4 -13 -10 -16 -5 -3 -10 1 -10 9 0 9 5 16 10 16
6 0 10 -4 10 -9z m-430 -53 c0 -6 -6 -8 -14 -5 -10 4 -16 -2 -19 -16 -3 -16
-5 -13 -6 10 -1 26 2 30 19 26 11 -3 20 -10 20 -15z m24 -60 c9 -34 8 -38 -10
-38 -9 0 -14 7 -12 18 1 9 -1 23 -5 30 -5 7 -3 12 6 12 8 0 17 -10 21 -22z
m462 6 c-3 -9 -6 -21 -6 -27 0 -7 -4 -7 -9 2 -10 16 -4 41 11 41 6 0 7 -7 4
-16z m54 1 c-6 -8 -8 -19 -4 -26 4 -7 2 -10 -7 -7 -8 3 -15 14 -17 26 -3 17 2
22 19 22 18 0 19 -3 9 -15z m-37 -70 c3 -16 0 -24 -7 -22 -14 4 -21 47 -8 47
5 0 12 -11 15 -25z m57 -20 c6 -8 9 -18 6 -23 -3 -5 1 -20 8 -34 10 -19 11
-29 3 -37 -8 -8 -8 -14 1 -23 9 -9 12 -9 12 1 0 7 5 9 10 6 20 -12 11 -36 -12
-33 -15 2 -26 13 -32 33 -5 17 -11 37 -14 45 -7 22 -8 80 -1 80 4 0 12 -7 19
-15z m-450 -9 c0 -8 6 -17 13 -20 6 -3 3 -5 -8 -3 -20 2 -35 37 -16 37 6 0 11
-6 11 -14z m60 -57 c0 -5 -4 -9 -10 -9 -5 0 -10 7 -10 16 0 8 5 12 10 9 6 -3
10 -10 10 -16z m-70 -29 c0 -5 -4 -10 -10 -10 -5 0 -10 5 -10 10 0 6 5 10 10
10 6 0 10 -4 10 -10z m-73 -16 c-3 -3 -12 -4 -19 -1 -8 3 -5 6 6 6 11 1 17 -2
13 -5z m63 -34 c0 -5 -4 -10 -10 -10 -5 0 -10 5 -10 10 0 6 5 10 10 10 6 0 10
-4 10 -10z"/>
<path d="M2554 4593 c13 -14 95 -30 108 -22 7 5 19 9 27 9 11 0 11 -3 0 -17
-12 -15 -12 -16 8 -11 15 4 20 2 17 -7 -4 -9 6 -13 33 -13 21 0 50 -3 66 -7
17 -5 27 -3 27 3 0 6 10 20 22 32 12 11 16 20 9 20 -7 0 -10 4 -7 9 4 5 -62 9
-156 10 -88 0 -158 -2 -154 -6z"/>
<path d="M3870 4592 c0 -4 6 -14 13 -21 10 -10 9 -15 -5 -25 -22 -16 -23 -26
-3 -26 19 0 21 -76 3 -83 -10 -3 -10 -9 -1 -25 6 -11 9 -28 7 -39 -3 -11 2
-25 10 -32 13 -11 16 -11 16 3 0 9 3 16 8 16 4 0 7 -11 7 -24 0 -13 -3 -22 -8
-19 -4 2 -10 -3 -14 -12 -3 -10 0 -21 8 -26 9 -5 10 -9 2 -9 -6 0 -18 7 -27
15 -8 8 -17 11 -20 6 -4 -5 6 -19 20 -30 l26 -21 -23 -20 c-20 -16 -21 -19 -6
-20 13 0 17 -8 17 -35 0 -26 4 -35 18 -36 10 0 12 -3 5 -6 -7 -2 -13 -9 -13
-14 0 -5 6 -8 13 -7 7 2 12 -7 12 -22 0 -19 -6 -26 -30 -31 -25 -6 -26 -7 -6
-8 20 -1 22 -3 11 -16 -7 -9 -10 -18 -6 -22 3 -4 13 2 21 13 21 27 18 11 -4
-30 -19 -34 -19 -34 0 -39 19 -5 27 -27 9 -27 -13 0 -13 -76 0 -100 7 -13 7
-21 0 -25 -5 -3 -10 -1 -10 4 0 6 -4 11 -9 11 -8 0 -5 -24 14 -106 5 -22 2
-35 -10 -47 -15 -16 -14 -17 14 -17 20 0 31 6 35 18 3 10 4 6 3 -8 -2 -19 -7
-25 -24 -24 -26 2 -29 -4 -10 -20 9 -8 12 -29 9 -68 -3 -50 -7 -58 -24 -58
-10 0 -16 -5 -13 -10 4 -6 10 -8 15 -5 5 3 18 -9 30 -25 20 -29 21 -32 6 -49
-19 -21 -20 -42 -3 -60 10 -11 8 -13 -10 -8 -21 5 -22 4 -8 -16 8 -12 15 -34
15 -49 0 -15 5 -30 11 -33 6 -4 8 -14 4 -23 -3 -8 0 -19 7 -24 10 -6 10 -10
-1 -17 -19 -12 -23 -194 -4 -186 44 18 46 18 39 7 -4 -7 -13 -12 -20 -12 -8 0
-21 -11 -30 -25 -9 -14 -12 -25 -7 -25 5 0 7 -18 4 -40 -4 -26 -2 -40 5 -40 6
0 9 7 6 15 -4 8 -2 15 4 15 5 0 12 -7 16 -15 3 -8 1 -15 -4 -15 -5 0 -12 -11
-16 -25 -3 -13 -9 -24 -13 -23 -37 4 -42 -17 -5 -26 15 -4 24 -10 20 -13 -3
-3 0 -13 6 -21 10 -11 9 -16 -5 -23 -26 -15 -21 -32 7 -25 16 4 26 1 30 -10 3
-8 2 -13 -3 -9 -5 3 -17 2 -26 -1 -13 -6 -14 -9 -3 -16 11 -8 11 -10 0 -15
-10 -4 -9 -9 4 -24 15 -17 15 -19 1 -19 -9 0 -19 -4 -22 -10 -4 -6 5 -10 19
-10 16 0 26 6 26 15 0 8 5 15 10 15 11 0 13 -11 4 -34 -3 -9 -13 -16 -20 -16
-25 0 -36 -47 -19 -81 9 -16 13 -34 9 -40 -3 -6 0 -22 7 -36 11 -20 11 -26 -1
-34 -12 -8 -12 -12 -2 -16 6 -2 12 -11 12 -19 0 -8 7 -14 16 -14 8 0 12 -5 9
-10 -4 -6 -15 -8 -26 -5 -11 4 -19 2 -19 -4 0 -6 5 -11 11 -11 8 0 8 -4 1 -13
-7 -8 -7 -18 -2 -27 8 -13 10 -13 10 -1 0 10 3 12 10 5 12 -12 3 -44 -11 -44
-4 0 -6 -7 -3 -15 4 -8 10 -12 15 -9 5 3 9 -4 9 -16 0 -12 -4 -18 -10 -15 -5
3 -10 -1 -10 -9 0 -10 9 -16 25 -16 14 0 25 -2 25 -4 0 -3 -11 -17 -25 -32
-30 -32 -32 -48 -6 -39 22 7 23 -17 3 -37 -16 -16 -15 -28 3 -28 8 0 15 5 15
10 0 20 15 9 30 -22 15 -32 45 -51 160 -101 36 -16 103 -47 150 -69 47 -22
105 -50 130 -62 25 -11 49 -27 53 -33 4 -7 15 -13 22 -13 13 0 15 190 15 1455
l0 1455 -365 0 c-201 0 -365 -4 -365 -8z m129 -1688 c-10 -12 -14 -12 -20 -2
-4 7 -3 16 4 20 18 11 29 -2 16 -18z m88 -880 c-3 -3 -12 -4 -19 -1 -8 3 -5 6
6 6 11 1 17 -2 13 -5z"/>
<path d="M2551 4235 c0 -12 -6 -26 -13 -33 -9 -9 -9 -12 0 -12 16 0 25 23 19
47 -4 16 -5 15 -6 -2z"/>
<path d="M2630 4220 c0 -5 5 -10 10 -10 6 0 10 5 10 10 0 6 -4 10 -10 10 -5 0
-10 -4 -10 -10z"/>
<path d="M3920 3404 c0 -8 5 -12 10 -9 6 4 8 11 5 16 -9 14 -15 11 -15 -7z"/>
<path d="M2400 3089 c0 -5 5 -7 10 -4 6 3 10 8 10 11 0 2 -4 4 -10 4 -5 0 -10
-5 -10 -11z"/>
<path d="M2228 2808 c-16 -5 -28 -16 -28 -24 0 -8 1 -14 3 -15 1 0 30 -3 65
-5 68 -6 77 3 36 35 -29 23 -36 24 -76 9z"/>
<path d="M3984 2010 c0 -11 4 -20 8 -20 4 0 8 9 8 20 0 11 -4 20 -8 20 -4 0
-8 -9 -8 -20z"/>
<path d="M4180 1745 c0 -8 -8 -16 -17 -16 -10 -1 -33 -3 -50 -5 -20 -1 -33 2
-33 9 0 15 -20 -14 -20 -29 0 -11 12 -13 135 -17 75 -3 71 -20 -5 -22 -90 -2
-153 -15 -141 -29 5 -6 9 -24 9 -40 0 -18 7 -35 18 -42 28 -19 35 -27 77 -78
21 -25 44 -46 52 -46 8 0 12 -6 9 -13 -2 -7 18 -37 45 -67 41 -45 50 -50 54
-34 2 10 5 2 6 -18 1 -31 4 -36 18 -31 12 5 15 2 10 -10 -3 -9 -2 -17 3 -17 6
0 9 -3 9 -7 -3 -21 2 -33 16 -33 8 0 15 5 15 10 0 19 21 10 30 -14 8 -21 90
-86 109 -86 4 0 17 -11 29 -25 12 -14 26 -25 32 -25 6 0 10 69 10 190 0 105
-3 189 -7 188 -5 -2 -8 2 -8 7 0 6 3 9 8 7 4 -1 7 2 7 8 0 5 -8 10 -17 11 -11
0 -13 3 -5 6 17 7 15 21 -5 26 -17 4 -17 5 0 6 9 0 17 5 17 10 0 5 3 17 7 27
5 14 3 16 -10 11 -46 -18 -51 -19 -30 -3 l23 17 -23 34 c-13 20 -24 29 -29 22
-5 -8 -11 -7 -22 2 -8 7 -19 10 -23 8 -5 -3 -17 1 -27 9 -16 11 -17 16 -6 28
10 13 9 18 -3 30 -13 13 -17 13 -35 -5 -12 -10 -19 -26 -16 -34 4 -10 0 -15
-11 -15 -10 0 -15 6 -12 13 9 25 -12 57 -39 57 -19 0 -25 4 -20 16 3 9 2 12
-5 9 -5 -4 -17 -1 -26 7 -14 11 -15 10 -9 -12 5 -18 5 -21 -3 -10 -5 8 -13 11
-17 8 -3 -4 -13 -1 -21 7 -19 19 -53 19 -53 0z m110 -65 c0 -5 -4 -10 -10 -10
-5 0 -10 5 -10 10 0 6 5 10 10 10 6 0 10 -4 10 -10z m30 0 c0 -5 -4 -10 -10
-10 -5 0 -10 5 -10 10 0 6 5 10 10 10 6 0 10 -4 10 -10z m30 -21 c0 -5 -4 -9
-10 -9 -5 0 -10 7 -10 16 0 8 5 12 10 9 6 -3 10 -10 10 -16z m80 5 c0 -8 -4
-12 -10 -9 -5 3 -10 10 -10 16 0 5 5 9 10 9 6 0 10 -7 10 -16z m-247 -56 c32
-15 38 -53 7 -43 -11 3 -20 2 -20 -3 0 -11 -49 -10 -67 1 -20 13 -15 37 10 47
30 12 39 12 70 -2z m-106 -20 c-3 -8 -6 -5 -6 6 -1 11 2 17 5 13 3 -3 4 -12 1
-19z"/>
<path d="M3985 1713 c17 -3 34 -9 40 -14 14 -14 25 -11 25 6 0 11 -11 15 -47
14 -34 -2 -39 -3 -18 -6z"/>
<path d="M3910 1661 c0 -6 5 -13 10 -16 6 -3 10 1 10 9 0 9 -4 16 -10 16 -5 0
-10 -4 -10 -9z"/>
<path d="M3960 1616 c0 -4 8 -16 19 -27 l18 -20 6 21 c3 11 1 20 -3 20 -5 0
-15 3 -24 6 -9 3 -16 3 -16 0z"/>
<path d="M4000 1551 c0 -5 7 -11 15 -15 8 -3 15 -11 15 -18 0 -9 -3 -9 -11 -1
-14 14 -39 6 -39 -12 0 -7 7 -15 14 -18 10 -4 13 -1 10 8 -5 12 -1 12 19 2 20
-9 23 -15 14 -25 -6 -7 -19 -11 -30 -8 -23 6 -61 -30 -53 -50 7 -17 26 -9 26
10 0 8 9 16 20 19 30 8 25 -21 -5 -33 -27 -10 -33 -37 -15 -70 7 -14 5 -19
-10 -23 -23 -6 -25 -4 -34 46 -4 20 -11 37 -17 37 -13 0 -1 -86 17 -122 8 -15
14 -39 14 -53 0 -15 11 -36 25 -49 20 -19 22 -25 11 -29 -12 -5 -14 -19 -10
-69 3 -35 8 -66 10 -70 3 -4 -7 -15 -21 -24 -28 -19 -33 -34 -9 -34 11 0 14
-5 9 -17 -3 -10 -7 -22 -8 -27 -3 -15 35 -20 43 -6 12 20 23 -27 11 -47 -10
-17 -10 -17 -11 0 0 10 -8 17 -19 17 -23 0 -36 -16 -21 -25 6 -4 7 -11 4 -17
-4 -6 0 -15 7 -20 11 -7 11 -11 2 -15 -7 -2 -13 -9 -13 -14 0 -5 6 -9 13 -9 9
0 11 -21 9 -81 -3 -60 0 -84 10 -90 8 -6 9 -12 3 -16 -15 -12 -12 -77 4 -97
12 -14 12 -19 2 -26 -8 -4 -11 -12 -7 -18 3 -6 1 -14 -4 -17 -7 -4 -8 -19 -5
-36 4 -19 3 -29 -5 -29 -8 0 -9 -6 -5 -17 5 -10 9 -27 10 -38 1 -11 6 -28 10
-38 4 -10 2 -24 -6 -34 -11 -13 -11 -17 -1 -20 6 -3 9 -10 6 -16 -5 -8 -2 -8
7 0 24 23 32 14 13 -14 -24 -37 -30 -143 -8 -143 11 0 13 -6 9 -20 -6 -20 -2
-20 198 -20 l204 0 10 73 9 72 8 -72 8 -73 74 0 74 0 0 506 c-1 278 -4 512 -7
520 -3 8 -11 14 -18 14 -6 0 -31 14 -53 30 -44 32 -58 37 -46 19 14 -23 -31 9
-64 45 -18 20 -43 43 -57 52 -14 9 -22 20 -19 25 6 10 -26 49 -134 165 -37 39
-89 97 -116 128 -44 49 -86 73 -86 47z m-16 -257 c4 -9 4 -19 2 -21 -8 -8 -26
8 -26 23 0 19 16 18 24 -2z m13 -96 c-3 -8 -6 -5 -6 6 -1 11 2 17 5 13 3 -3 4
-12 1 -19z m33 -68 c0 -5 -7 -10 -15 -10 -8 0 -15 5 -15 10 0 6 7 10 15 10 8
0 15 -4 15 -10z m-20 -194 c0 -26 -6 -18 -14 19 -5 22 -4 26 4 15 5 -8 10 -24
10 -34z m35 -115 c3 -5 1 -12 -5 -16 -5 -3 -10 1 -10 9 0 18 6 21 15 7z m-38
-463 c-3 -8 -6 -5 -6 6 -1 11 2 17 5 13 3 -3 4 -12 1 -19z m0 -60 c-3 -8 -6
-5 -6 6 -1 11 2 17 5 13 3 -3 4 -12 1 -19z m443 -108 c0 -16 -4 -30 -8 -30 -5
0 -7 13 -4 30 2 17 6 30 8 30 2 0 4 -13 4 -30z"/>
<path d="M3903 1470 c-2 -23 8 -32 24 -22 6 5 4 13 -6 24 -16 16 -17 16 -18
-2z"/>
<path d="M2036 1163 c-11 -11 -6 -23 9 -23 8 0 15 4 15 9 0 13 -16 22 -24 14z"/>
<path d="M2210 1152 c0 -8 25 -32 50 -47 8 -5 4 5 -10 22 -24 31 -40 41 -40
25z"/>
<path d="M2630 925 c0 -8 4 -15 8 -15 5 0 9 7 9 15 0 8 -4 15 -9 15 -4 0 -8
-7 -8 -15z"/>
<path d="M2292 914 c10 -10 20 -16 22 -13 3 3 -5 11 -17 18 -21 13 -21 12 -5
-5z"/>
<path d="M2590 890 c0 -5 5 -10 10 -10 6 0 10 5 10 10 0 6 -4 10 -10 10 -5 0
-10 -4 -10 -10z"/>
<path d="M2220 880 c0 -5 5 -10 11 -10 5 0 7 5 4 10 -3 6 -8 10 -11 10 -2 0
-4 -4 -4 -10z"/>
<path d="M2230 796 c0 -8 5 -18 10 -21 6 -3 10 1 10 9 0 8 -4 18 -10 21 -5 3
-10 -1 -10 -9z"/>
<path d="M2680 749 c0 -5 5 -7 10 -4 6 3 10 8 10 11 0 2 -4 4 -10 4 -5 0 -10
-5 -10 -11z"/>
<path d="M1920 680 c0 -5 5 -10 11 -10 5 0 7 5 4 10 -3 6 -8 10 -11 10 -2 0
-4 -4 -4 -10z"/>
<path d="M1970 680 c0 -5 5 -10 10 -10 6 0 10 5 10 10 0 6 -4 10 -10 10 -5 0
-10 -4 -10 -10z"/>
<path d="M1977 654 c7 -3 9 -12 6 -20 -6 -17 22 -20 33 -3 7 13 -13 29 -36 28
-9 0 -11 -2 -3 -5z"/>
<path d="M2400 460 c0 -5 5 -10 11 -10 5 0 7 5 4 10 -3 6 -8 10 -11 10 -2 0
-4 -4 -4 -10z"/>
<path d="M1870 450 c0 -5 5 -10 10 -10 6 0 10 5 10 10 0 6 -4 10 -10 10 -5 0
-10 -4 -10 -10z"/>
<path d="M2040 375 c0 -8 7 -15 15 -15 8 0 15 4 15 9 0 5 -7 11 -15 15 -9 3
-15 0 -15 -9z"/>
<path d="M2140 370 c0 -5 5 -10 10 -10 6 0 10 5 10 10 0 6 -4 10 -10 10 -5 0
-10 -4 -10 -10z"/>
<path d="M1936 355 c4 -8 10 -12 15 -9 11 6 2 24 -11 24 -5 0 -7 -7 -4 -15z"/>
<path d="M1965 230 c3 -5 13 -10 21 -10 8 0 14 5 14 10 0 6 -9 10 -21 10 -11
0 -17 -4 -14 -10z"/>
<path d="M2231 194 c0 -11 3 -14 6 -6 3 7 2 16 -1 19 -3 4 -6 -2 -5 -13z"/>
<path d="M2450 161 c0 -5 5 -13 10 -16 6 -3 10 -2 10 4 0 5 -4 13 -10 16 -5 3
-10 2 -10 -4z"/>
<path d="M2510 10 c0 -5 5 -10 10 -10 6 0 10 5 10 10 0 6 -4 10 -10 10 -5 0
-10 -4 -10 -10z"/>
</g>
</svg>
